<svg width="338" height="128" viewBox="0 0 338 128" fill="none" xmlns="http://www.w3.org/2000/svg">
<path d="M3.70096 113.768L1 111.653V127.159H337V4.17159L333.489 2.0572L330.248 2.762L327.817 1L325.116 1.7048L321.875 6.28599L318.093 7.34319L314.312 4.87639L307.559 6.63839L303.238 13.334L298.646 12.6292L295.405 16.1532L291.354 17.2104L287.842 26.3727L284.061 24.2584L281.09 32.0111L274.068 43.6403L270.286 48.9263L265.965 45.4023L262.183 48.9263L253.54 41.1735L248.949 42.2307L245.167 41.1735L241.386 45.0499L237.064 42.2307L233.283 44.3451L230.312 52.8027L226.26 52.4503L222.209 54.5647L219.508 50.9379L216.807 48.9263L214.376 52.8027L211.405 64.0795L208.974 58.0887L206.814 66.5463L201.952 53.8599L197.09 54.9171L194.389 58.0887L191.958 64.0795L190.068 58.0887L185.206 60.2031L182.235 54.5647L177.373 55.9743L172.584 61.9651L168.73 58.0887L165.759 61.9651L161.167 71.8323L158.196 67.6035L154.415 59.8507L151.174 61.9651L146.852 68.6607L143.071 66.5463L139.019 67.9559L136.318 66.1939L133.617 67.6035L126.595 68.6607L123.084 71.8323L121.733 71.1275L118.762 71.8323L117.141 74.6514L115.251 76.4134L112.28 78.1754L110.119 74.6514L109.039 81.4263L104.936 67.9559L101.746 64.0795L94.9936 67.6035H92.0225L89.5916 66.5463L86.0804 71.4799L81.2187 64.7843L78.2476 68.6607L74.7363 72.1847H69.3344L68.5241 70.4227L64.4727 64.7843L62.3119 69.3655L53.1286 71.4799L47.4566 85.106H44.4855L42.865 79.585L40.9743 97.5574L38.2733 94.5679L35.8424 92.9909L34.2219 98.7732L30.12 96.6705L26.9293 106.367L24.2283 100.729L20.717 104.253L16.1254 105.663L13.6945 109.891L10.4534 113.063L5.86174 114.473L3.70096 113.768Z" fill="#DCEAFB"/>
<path d="M1 112.074L3.70096 114.196L5.86174 114.903L10.4534 113.489L13.6945 110.305L16.1254 106.06L20.717 104.645L24.2283 101.108L26.9293 106.768L30.4405 97.0339L34.2219 99.1445L35.8424 93.3403L38.2733 94.9232L40.9743 97.9241L42.865 79.8835L44.4855 85.4254H47.4566L53.1286 71.7475L62.3119 69.6251L64.4727 65.0265L68.5241 70.6863L69.3344 72.455H74.7363L78.2476 68.9176L81.2186 65.0265L86.0804 71.7475L89.5916 66.7952L92.0225 67.8564H94.9936L101.746 64.319L104.987 68.5403L109.039 81.2041L110.119 75.3999L112.28 78.5658L115.251 76.9828L117.141 75.3999L118.762 72.2339L121.733 71.7475L123.084 72.2339L126.595 68.9176L133.617 67.8564L136.318 66.7952L139.019 68.2101L143.071 66.7952L146.852 68.9176L151.174 62.2084L154.415 60.4279L158.196 67.8564L161.167 72.2339L165.759 62.2084L168.73 58.3055L172.781 62.2084L177.373 56.1831L182.235 54.7681L185.206 60.4279L190.068 58.3055L191.958 64.319L194.389 58.3055L197.09 55.1218L201.952 54.0606L206.814 66.7952L208.974 58.3055L211.405 64.319L214.376 52.6457L216.807 49.1083L219.508 50.5999L222.209 54.7681L226.26 52.6457L230.312 52.9994L233.283 44.5097L237.064 42.3873L241.386 45.2172L245.167 41.3261L248.949 42.3873L253.54 41.3261L262.183 49.1083L265.965 45.5709L270.286 49.1083L274.068 43.8022L281.09 32.1289L284.061 24.3467L287.842 26.4691L291.354 17.2719L295.405 16.2107L298.646 12.6733L303.238 13.3808L307.559 6.6598L314.312 4.89111L318.093 7.36728L321.875 6.30606L325.116 1.70748L327.817 1L330.248 2.76869L333.489 2.06121L337 4.18364" stroke="#007FD8" stroke-opacity="0.5" stroke-linejoin="round"/>
</svg>
