<svg width="163" height="51" viewBox="0 0 163 51" fill="none" xmlns="http://www.w3.org/2000/svg">
<path d="M33.8494 9.60567L38.5565 14.6413L46.2112 6.5034C47.646 4.97823 48.2445 3.22825 46.3406 1.51334C44.2892 -0.334571 43.168 0.350125 41.5718 1.93555L33.8494 9.60567Z" fill="#009FE3"/>
<path d="M7.18897 15.643L21.2937 1.3019C23.158 -0.302811 24.0046 -0.500442 25.8715 1.13801L45.4782 21.4462C46.919 22.9385 48.1373 24.7634 46.3572 26.7599C44.5663 28.769 42.5592 27.7673 41.0799 26.2695L33.9298 19.0301L26.66 26.5659C25.2398 28.0383 23.2273 28.7004 21.5686 26.8558C19.8464 24.9413 20.5435 23.2542 22.0061 21.7301L29.0785 14.3637L23.2569 8.71501L11.8325 20.2821C10.2216 21.9133 7.87388 23.7078 5.92454 21.0141C4.23272 18.6772 5.62634 17.2315 7.18897 15.643Z" fill="#009640"/>
<path d="M1.27869 27.0882C8.07929 34.0304 14.8801 40.9723 21.6805 47.9147C23.0127 49.1139 24.345 49.1139 25.6772 47.9147C30.784 42.7439 35.8909 37.5735 40.9977 32.4027C42.3608 31.023 42.3788 29.2262 40.8144 27.7492C38.9434 25.9821 37.6697 26.6903 36.2083 28.1602L23.812 40.6309C17.9398 34.7399 12.0675 28.8495 6.19531 22.9587C4.64891 21.4073 2.85906 20.25 0.918379 22.4042C-0.606811 24.097 -0.0543408 25.7273 1.27869 27.0882Z" fill="#F8CA1B"/>
<path d="M44.4067 40.4091L50.2074 23.8726C51.5099 22.1561 53.6176 22.2407 54.2311 23.9173L49.3169 37.8921L57.5267 38.0623C58.9668 38.8719 57.8013 40.7472 56.8128 41.3854L45.3918 41.4746C44.703 41.5116 44.2234 40.8767 44.4067 40.4091Z" fill="#F8CA1B"/>
<path d="M81.2161 41.5728C79.3869 41.5728 78.0647 41.1647 77.2545 40.3478C76.4404 39.5269 76.1857 38.3477 76.4893 36.81C76.5622 36.4855 76.6579 36.1352 76.776 35.7603C76.8896 35.3849 77.0253 35.0101 77.1802 34.6266C78.0958 32.4181 79.3999 30.6929 81.0928 29.4468C82.7902 28.201 84.6761 27.5801 86.7646 27.5801C88.5235 27.5801 89.7752 27.9885 90.5161 28.8011C91.2569 29.6136 91.4726 30.814 91.1606 32.3933C91.084 32.7809 90.9743 33.2016 90.8334 33.6477C90.358 35.1571 90.0554 35.553 88.6575 35.6297L80.5273 35.4691L80.4715 35.6398C80.3877 35.8854 80.325 36.1148 80.2815 36.3356C80.1311 37.1397 80.2317 37.7442 80.5782 38.148C80.9294 38.5523 81.5362 38.7523 82.4024 38.7523C83.0313 38.7523 83.6285 38.6233 84.1929 38.3689C84.7584 38.1106 85.1892 37.7773 85.487 37.3604C86.9442 36.4128 89.765 36.6071 89.1056 37.7219L89.1059 37.7624C88.1989 39.0584 87.1379 39.6802 85.6973 40.4355C84.2539 41.1918 82.764 41.5728 81.2161 41.5728ZM87.3106 33.1849L87.4149 32.7224C87.5664 31.9556 87.49 31.385 87.1808 31.0141C86.8715 30.6431 86.3275 30.4597 85.5446 30.4597C84.5595 30.4597 83.6701 30.8224 82.8759 31.5474C82.4137 31.9724 81.9848 32.5184 81.5847 33.1852H87.3106V33.1849Z" fill="#F8CA1B"/>
<path d="M91.9599 38.4766C93.7848 33.3003 95.4029 28.4636 97.2782 23.2308C97.4552 22.7372 98.1122 22.5871 98.6435 22.637L107.515 22.7836C108.847 22.8055 110.514 22.5472 109.894 24.6072C109.379 26.3173 107.921 25.9902 106.533 25.9902H100.043L98.6303 29.9605C100.386 29.9605 101.946 29.9605 103.604 29.9605C104.997 29.9605 106.451 29.7798 106.026 31.8477C105.683 33.5177 104.289 33.1366 103.013 33.1366H97.4864L95.3795 39.0802C94.8675 40.5254 94.4195 42.0876 92.4001 41.6098C90.7481 41.2189 91.6035 39.4871 91.9599 38.4766Z" fill="#009640"/>
<path d="M111.95 41.3748C110.241 41.3748 108.974 40.9169 108.151 40.001C107.329 39.0854 107.057 37.842 107.34 36.2671C107.39 35.998 107.463 35.6917 107.564 35.3514C107.664 35.0112 107.774 34.6834 107.898 34.3727C108.744 32.1968 110.026 30.4707 111.744 29.1898C113.458 27.909 115.355 27.2705 117.438 27.2705C119.147 27.2705 120.414 27.7324 121.234 28.6607C122.053 29.5888 122.318 30.8489 122.024 32.4407C121.972 32.7181 121.894 33.0292 121.789 33.3732C121.688 33.7176 121.572 34.0535 121.446 34.3729C120.613 36.5232 119.34 38.2243 117.626 39.4846C115.916 40.7444 114.024 41.3748 111.95 41.3748ZM113.104 38.4095C114.162 38.4095 115.09 38.0567 115.893 37.3512C116.695 36.6452 117.369 35.5828 117.926 34.1633C118.015 33.9321 118.095 33.7014 118.162 33.474C118.229 33.243 118.28 33.0329 118.316 32.844C118.469 32.0165 118.367 31.3741 118.016 30.9205C117.661 30.4626 117.085 30.2358 116.284 30.2358C115.23 30.2358 114.302 30.5928 113.497 31.311C112.692 32.0292 112.006 33.1131 111.44 34.5576C111.358 34.7759 111.283 34.9987 111.213 35.2213C111.143 35.4439 111.097 35.6496 111.071 35.8343C110.919 36.6575 111.017 37.2916 111.37 37.7372C111.723 38.1873 112.3 38.4095 113.104 38.4095Z" fill="#009640"/>
<path d="M121.798 40.6119L126.094 28.3461L126.559 27.9335C127.531 27.0983 128.724 27.1669 129.454 27.9629L128.62 30.662C128.871 30.3246 129.026 29.8095 129.245 29.4392C130.244 27.7444 131.843 27.5716 132.991 27.5748C133.247 27.5755 133.503 27.5834 133.759 27.5876C135.112 28.0656 135.495 28.8976 134.907 30.0829C134.445 31.0402 133.727 31.3953 132.799 31.2516C132.54 31.2179 132.254 30.6114 131.74 30.5524C130.791 30.4433 129.945 30.8772 129.219 31.5224C128.493 32.1679 127.913 33.1124 127.474 34.348L124.987 41.3783C124.564 42.4175 121.55 41.5183 121.798 40.6119Z" fill="#009640"/>
<path d="M66.4552 22.4795C65.3485 22.4795 64.3217 23.4352 64.1694 24.607C64.0173 25.7785 64.7959 26.7342 65.9025 26.7342C67.0094 26.7342 68.0365 25.7785 68.1886 24.607C68.3407 23.4352 67.5621 22.4795 66.4552 22.4795Z" fill="#F8CA1B"/>
<path d="M63.1658 28.6224L59.7813 39.618C59.4929 42.215 62.9767 42.0788 63.5651 40.1253C64.5582 36.585 65.7144 33.011 66.7075 29.471C67.0991 27.3678 63.7311 27.196 63.1658 28.6224Z" fill="#F8CA1B"/>
<path d="M71.4627 27.9418L69.6541 28.0084C68.9417 28.0859 68.273 29.8287 68.9306 30.2726H70.3779L67.7798 39.2628C67.418 40.4394 67.7579 41.1718 68.7993 41.4604L73.535 41.4935C74.9492 41.3826 75.9686 38.7188 74.5873 38.5634L71.9981 38.3969L74.1928 30.5053H77.0208C77.6126 30.2167 78.2813 28.3519 77.4155 27.9413L75.0416 27.908L76.3986 23.6914C76.5715 22.7284 73.7237 22.0008 72.8771 23.2797L71.4627 27.9418Z" fill="#F8CA1B"/>
<path d="M138.556 41.5728C136.726 41.5728 135.404 41.1647 134.594 40.3478C133.78 39.5269 133.525 38.3477 133.829 36.81C133.902 36.4855 133.997 36.1352 134.116 35.7603C134.229 35.3849 134.365 35.0101 134.52 34.6266C135.435 32.4181 136.739 30.6929 138.432 29.4468C140.13 28.201 142.016 27.5801 144.104 27.5801C145.863 27.5801 147.115 27.9885 147.855 28.8011C148.596 29.6136 148.812 30.814 148.5 32.3933C148.423 32.7809 148.314 33.2016 148.173 33.6477C147.697 35.1571 147.395 35.553 145.997 35.6297L137.867 35.4691L137.811 35.6398C137.727 35.8854 137.664 36.1148 137.621 36.3356C137.471 37.1397 137.571 37.7442 137.917 38.148C138.268 38.5523 138.875 38.7523 139.742 38.7523C140.37 38.7523 140.967 38.6233 141.532 38.3689C142.098 38.1106 142.528 37.7773 142.826 37.3604C144.283 36.4128 147.104 36.6071 146.445 37.7219L146.445 37.7624C145.538 39.0584 144.477 39.6802 143.036 40.4355C141.594 41.1918 140.104 41.5728 138.556 41.5728ZM144.65 33.1849L144.755 32.7224C144.906 31.9556 144.83 31.385 144.52 31.0141C144.211 30.6431 143.667 30.4597 142.884 30.4597C141.899 30.4597 141.01 30.8224 140.216 31.5474C139.754 31.9724 139.325 32.5184 138.925 33.1852H144.65V33.1849Z" fill="#009640"/>
<path d="M147.181 39.8169L152.932 34.3092L151.276 28.9466C151.163 27.7085 153.029 25.9692 154.925 28.1508L156.086 31.7774L159.915 27.8853C161.728 26.4261 163.687 28.4996 162.764 29.3594L157.324 34.5861L158.781 38.7832C159.333 40.3719 159.906 41.258 157.727 41.721C156.079 42.0715 155.987 41.5428 155.568 40.1914L154.581 37.0059L150.152 41.2023C149.016 42.6077 146.22 41.1241 147.181 39.8169Z" fill="#009640"/>
<path d="M40.633 50.0652V45.516H39.0288V44.5894H43.3263V45.516H41.7258V50.0652H40.633ZM45.2663 44.5888V46.6019C45.6011 46.2066 46.0004 46.0077 46.4652 46.0077C46.7043 46.0077 46.9186 46.0537 47.1111 46.1429C47.3027 46.2318 47.4474 46.3469 47.5442 46.4855C47.6411 46.626 47.708 46.78 47.743 46.9494C47.7796 47.1181 47.7971 47.3817 47.7971 47.7377V50.0644H46.7608V47.9684C46.7608 47.553 46.7407 47.2888 46.7017 47.1768C46.6613 47.0646 46.5922 46.9768 46.4927 46.9104C46.3931 46.8438 46.2685 46.8109 46.1185 46.8109C45.946 46.8109 45.7924 46.8528 45.6578 46.9384C45.5219 47.0226 45.4224 47.1501 45.3605 47.321C45.2975 47.4917 45.2661 47.7443 45.2661 48.0767V50.0644H44.2298V44.5886H45.2663V44.5888ZM51.3264 48.8028L52.3602 48.9774C52.2266 49.3613 52.0176 49.6535 51.7306 49.8534C51.4448 50.0549 51.086 50.1542 50.6551 50.1542C49.9741 50.1542 49.4703 49.9301 49.1429 49.4785C48.885 49.1178 48.7551 48.6614 48.7551 48.1122C48.7551 47.454 48.9252 46.9391 49.265 46.5666C49.6037 46.1946 50.0332 46.0081 50.5519 46.0081C51.1349 46.0081 51.5945 46.2036 51.9319 46.5933C52.2682 46.9833 52.4292 47.5802 52.4156 48.3847H49.8179C49.8255 48.6959 49.9086 48.938 50.0685 49.1104C50.2284 49.2839 50.4286 49.3707 50.6666 49.3707C50.8289 49.3707 50.965 49.3258 51.0758 49.2368C51.1868 49.1457 51.271 49.0017 51.3264 48.8028ZM51.3857 47.7421C51.3781 47.4371 51.3013 47.2066 51.1542 47.0484C51.0068 46.8904 50.8267 46.8114 50.6151 46.8114C50.3885 46.8114 50.202 46.8955 50.0548 47.0624C49.9075 47.2283 49.8346 47.4553 49.8369 47.7423H51.3857V47.7421ZM56.554 50.0652L55.2634 44.5894H56.3804L57.1965 48.3505L58.1848 44.5894H59.483L60.431 48.4143L61.2609 44.5894H62.3602L61.0471 50.0652H59.8885L58.8119 45.9711L57.7379 50.0652H56.554ZM62.7437 48.0252C62.7437 47.677 62.8294 47.3392 62.998 47.0127C63.1681 46.688 63.4085 46.4378 63.7194 46.2673C64.0306 46.0949 64.378 46.0081 64.7621 46.0081C65.3537 46.0081 65.8397 46.2036 66.2187 46.5933C66.5976 46.9833 66.7865 47.4757 66.7865 48.071C66.7865 48.67 66.5952 49.1674 66.2139 49.5628C65.8309 49.9583 65.35 50.1542 64.7696 50.1542C64.4095 50.1542 64.0683 50.0729 63.7422 49.9081C63.4158 49.7438 63.1681 49.5026 62.998 49.1853C62.8294 48.8678 62.7437 48.4816 62.7437 48.0252ZM63.8064 48.0813C63.8064 48.4754 63.8984 48.7763 64.0832 48.9851C64.2674 49.1943 64.4948 49.2988 64.7658 49.2988C65.0365 49.2988 65.263 49.1943 65.4459 48.9851C65.6298 48.7763 65.7214 48.4726 65.7214 48.0736C65.7214 47.686 65.6294 47.3863 65.4459 47.1772C65.263 46.9682 65.0365 46.8635 64.7658 46.8635C64.495 46.8635 64.2672 46.9682 64.0832 47.1772C63.8984 47.3863 63.8064 47.6886 63.8064 48.0813ZM68.8014 50.0652H67.7651V46.0986H68.7272V46.6621C68.8921 46.3955 69.0405 46.2196 69.1717 46.1356C69.3037 46.0515 69.4525 46.0081 69.62 46.0081C69.8568 46.0081 70.0834 46.0747 70.3024 46.2071L69.9814 47.1212C69.8074 47.0074 69.6449 46.9503 69.4954 46.9503C69.3491 46.9503 69.2271 46.9901 69.1264 47.0714C69.0243 47.1518 68.9464 47.2986 68.8882 47.5101C68.8302 47.7219 68.8016 48.1656 68.8016 48.84L68.8014 50.0652ZM70.9591 50.0652V44.5894H71.9955V50.0652H70.9591ZM76.8606 50.0652H75.8985V49.4824C75.7385 49.7096 75.5496 49.8779 75.3319 49.989C75.114 50.1001 74.895 50.1548 74.6734 50.1548C74.2227 50.1548 73.8375 49.971 73.5161 49.6038C73.1961 49.2366 73.0348 48.7241 73.0348 48.0672C73.0348 47.3944 73.1913 46.8832 73.5033 46.5335C73.8156 46.1843 74.2112 46.0086 74.6886 46.0086C75.1255 46.0086 75.5046 46.1935 75.8245 46.5618V44.5894H76.8608L76.8606 50.0652ZM74.0941 47.9958C74.0941 48.4191 74.1521 48.7248 74.2679 48.9147C74.4341 49.1877 74.6684 49.3251 74.9679 49.3251C75.2071 49.3251 75.4101 49.2217 75.5773 49.0166C75.7437 48.8113 75.8279 48.5044 75.8279 48.0964C75.8279 47.6413 75.7461 47.3124 75.5849 47.1122C75.4226 46.9121 75.2146 46.8114 74.9604 46.8114C74.7148 46.8114 74.5096 46.9108 74.3432 47.1085C74.1774 47.3063 74.0941 47.6014 74.0941 47.9958ZM80.1616 48.0252C80.1616 47.677 80.2472 47.3392 80.4158 47.0127C80.5859 46.688 80.8261 46.4378 81.1373 46.2673C81.4485 46.0949 81.7958 46.0081 82.1797 46.0081C82.7716 46.0081 83.2576 46.2036 83.6367 46.5933C84.0156 46.9833 84.2046 47.4757 84.2046 48.071C84.2046 48.67 84.0131 49.1674 83.632 49.5628C83.2489 49.9583 82.7681 50.1542 82.1875 50.1542C81.8274 50.1542 81.4864 50.0729 81.16 49.9081C80.8339 49.7438 80.5861 49.5026 80.416 49.1853C80.247 48.8678 80.1616 48.4816 80.1616 48.0252ZM81.2243 48.0813C81.2243 48.4754 81.3161 48.7763 81.5011 48.9851C81.6852 49.1943 81.9129 49.2988 82.1836 49.2988C82.4543 49.2988 82.6809 49.1943 82.8638 48.9851C83.0479 48.7763 83.1394 48.4726 83.1394 48.0736C83.1394 47.686 83.0477 47.3863 82.8638 47.1772C82.6811 46.9682 82.4543 46.8635 82.1836 46.8635C81.9129 46.8635 81.685 46.9682 81.5011 47.1772C81.3161 47.3863 81.2243 47.6886 81.2243 48.0813ZM84.7722 46.0986H85.3476V45.7991C85.3476 45.4663 85.3829 45.2167 85.4534 45.052C85.5237 44.8876 85.6525 44.7538 85.8397 44.6506C86.0286 44.5471 86.2669 44.4961 86.554 44.4961C86.8496 44.4961 87.1379 44.541 87.4216 44.63L87.2818 45.3631C87.1167 45.3223 86.958 45.3035 86.8059 45.3035C86.6549 45.3035 86.548 45.3379 86.4824 45.4093C86.4166 45.4803 86.3854 45.6168 86.3854 45.8184V46.0986H87.1599V46.9238H86.3854V50.0652H85.3478V46.9238H84.7722V46.0986ZM90.2755 50.0652V44.5894H93.9841V45.516H91.3687V46.8114H93.6266V47.7379H91.3687V50.0646H90.2755V50.0652ZM95.0865 45.5607V44.5888H96.1226V45.5607H95.0865ZM95.0865 50.0652V46.0986H96.1226V50.0652H95.0865ZM100.959 50.0652H99.9226V48.0407C99.9226 47.6124 99.9001 47.3354 99.8559 47.2092C99.8118 47.0846 99.7387 46.986 99.6393 46.9161C99.5398 46.8475 99.4199 46.8114 99.2805 46.8114C99.1005 46.8114 98.9393 46.8613 98.7969 46.9606C98.6549 47.0616 98.5569 47.193 98.5039 47.3574C98.4511 47.5219 98.4247 47.8254 98.4247 48.269V50.0652H97.3883V46.0986H98.3502V46.6812C98.6928 46.2325 99.1234 46.0081 99.6421 46.0081C99.8702 46.0081 100.08 46.0502 100.269 46.133C100.458 46.2171 100.602 46.3227 100.698 46.4531C100.795 46.583 100.864 46.7298 100.901 46.8942C100.941 47.0587 100.959 47.2932 100.959 47.5995L100.959 50.0652ZM102.995 47.3083L102.054 47.1363C102.16 46.7524 102.341 46.4696 102.599 46.2846C102.859 46.1008 103.242 46.0077 103.75 46.0077C104.214 46.0077 104.557 46.0638 104.784 46.1751C105.009 46.2859 105.169 46.4262 105.261 46.5971C105.353 46.7677 105.4 47.0802 105.4 47.5364L105.388 48.762C105.388 49.11 105.404 49.3676 105.438 49.5333C105.471 49.6978 105.534 49.8762 105.625 50.0652H104.598C104.572 49.9951 104.538 49.8919 104.499 49.7554C104.483 49.693 104.47 49.652 104.462 49.6319C104.285 49.8067 104.096 49.9366 103.894 50.0245C103.693 50.1113 103.478 50.1546 103.249 50.1546C102.846 50.1546 102.527 50.0438 102.295 49.8231C102.063 49.601 101.947 49.3207 101.947 48.9813C101.947 48.7583 102 48.558 102.105 48.3825C102.211 48.2066 102.36 48.0727 102.55 47.9796C102.74 47.8865 103.016 47.805 103.375 47.7349C103.858 47.6431 104.195 47.5565 104.381 47.4772V47.3727C104.381 47.1698 104.332 47.0269 104.233 46.9402C104.135 46.8547 103.95 46.8114 103.677 46.8114C103.492 46.8114 103.348 46.8484 103.245 46.9224C103.142 46.995 103.059 47.124 102.995 47.3083ZM104.381 48.1601C104.249 48.2048 104.039 48.2583 103.75 48.3207C103.463 48.3832 103.276 48.4441 103.186 48.503C103.051 48.601 102.983 48.7235 102.983 48.8729C102.983 49.0208 103.037 49.147 103.146 49.2541C103.254 49.361 103.391 49.4143 103.559 49.4143C103.746 49.4143 103.924 49.3521 104.094 49.2281C104.22 49.1336 104.302 49.0177 104.341 48.8799C104.369 48.7909 104.382 48.6196 104.382 48.3685L104.381 48.1601ZM110.196 50.0652H109.159V48.0407C109.159 47.6124 109.137 47.3354 109.092 47.2092C109.048 47.0846 108.975 46.986 108.876 46.9161C108.776 46.8475 108.657 46.8114 108.517 46.8114C108.337 46.8114 108.176 46.8613 108.034 46.9606C107.891 47.0616 107.793 47.193 107.74 47.3574C107.687 47.5219 107.661 47.8254 107.661 48.269V50.0652H106.625V46.0986H107.587V46.6812C107.929 46.2325 108.36 46.0081 108.879 46.0081C109.107 46.0081 109.317 46.0502 109.506 46.133C109.694 46.2171 109.838 46.3227 109.935 46.4531C110.032 46.583 110.1 46.7298 110.138 46.8942C110.177 47.0587 110.196 47.2932 110.196 47.5995V50.0652H110.196ZM114.873 47.2717L113.851 47.4581C113.817 47.2517 113.738 47.0962 113.616 46.9915C113.494 46.8869 113.337 46.8344 113.143 46.8344C112.884 46.8344 112.679 46.9251 112.525 47.1047C112.371 47.2857 112.295 47.5878 112.295 48.0112C112.295 48.4816 112.373 48.8144 112.529 49.0083C112.685 49.2022 112.894 49.2988 113.157 49.2988C113.355 49.2988 113.514 49.2427 113.64 49.1297C113.766 49.016 113.854 48.8212 113.906 48.5458L114.925 48.7204C114.819 49.1932 114.615 49.5517 114.316 49.7929C114.016 50.0348 113.614 50.1546 113.11 50.1546C112.537 50.1546 112.08 49.9726 111.74 49.6064C111.398 49.2405 111.228 48.7333 111.228 48.0859C111.228 47.4318 111.4 46.9218 111.741 46.5567C112.083 46.1908 112.545 46.0086 113.128 46.0086C113.606 46.0086 113.985 46.1135 114.267 46.321C114.547 46.5283 114.75 46.8457 114.873 47.2717ZM115.869 45.5607V44.5888H116.905V45.5607H115.869ZM115.869 50.0652V46.0986H116.905V50.0652H115.869ZM118.952 47.3083L118.011 47.1363C118.117 46.7524 118.298 46.4696 118.557 46.2846C118.816 46.1008 119.199 46.0077 119.707 46.0077C120.171 46.0077 120.514 46.0638 120.741 46.1751C120.966 46.2859 121.126 46.4262 121.218 46.5971C121.31 46.7677 121.357 47.0802 121.357 47.5364L121.346 48.762C121.346 49.11 121.362 49.3676 121.396 49.5333C121.428 49.6978 121.491 49.8762 121.582 50.0652H120.556C120.529 49.9951 120.495 49.8919 120.456 49.7554C120.44 49.693 120.427 49.652 120.42 49.6319C120.242 49.8067 120.053 49.9366 119.852 50.0245C119.65 50.1113 119.435 50.1546 119.206 50.1546C118.803 50.1546 118.485 50.0438 118.253 49.8231C118.02 49.601 117.904 49.3207 117.904 48.9813C117.904 48.7583 117.957 48.558 118.063 48.3825C118.168 48.2066 118.317 48.0727 118.507 47.9796C118.698 47.8865 118.973 47.805 119.332 47.7349C119.816 47.6431 120.152 47.5565 120.338 47.4772V47.3727C120.338 47.1698 120.289 47.0269 120.191 46.9402C120.093 46.8547 119.907 46.8114 119.634 46.8114C119.449 46.8114 119.306 46.8484 119.202 46.9224C119.099 46.995 119.016 47.124 118.952 47.3083ZM120.338 48.1601C120.206 48.2048 119.996 48.2583 119.707 48.3207C119.42 48.3832 119.233 48.4441 119.143 48.503C119.009 48.601 118.941 48.7235 118.941 48.8729C118.941 49.0208 118.995 49.147 119.103 49.2541C119.211 49.361 119.349 49.4143 119.516 49.4143C119.704 49.4143 119.881 49.3521 120.051 49.2281C120.177 49.1336 120.259 49.0177 120.298 48.8799C120.326 48.7909 120.339 48.6196 120.339 48.3685V48.1601H120.338ZM122.589 50.0652V44.5894H123.626V50.0652H122.589ZM127.221 50.0652V44.5894H130.93V45.516H128.314V46.8114H130.572V47.7379H128.314V50.0646H127.221V50.0652ZM133.025 50.0652H131.989V46.0986H132.95V46.6621C133.116 46.3955 133.264 46.2196 133.395 46.1356C133.527 46.0515 133.676 46.0081 133.843 46.0081C134.08 46.0081 134.307 46.0747 134.525 46.2071L134.205 47.1212C134.031 47.0074 133.868 46.9503 133.719 46.9503C133.572 46.9503 133.451 46.9901 133.35 47.0714C133.247 47.1518 133.17 47.2986 133.112 47.5101C133.054 47.7219 133.025 48.1656 133.025 48.84L133.025 50.0652ZM137.45 48.8028L138.484 48.9774C138.351 49.3613 138.142 49.6535 137.855 49.8534C137.569 50.0549 137.21 50.1542 136.779 50.1542C136.098 50.1542 135.594 49.9301 135.267 49.4785C135.009 49.1178 134.879 48.6614 134.879 48.1122C134.879 47.454 135.049 46.9391 135.389 46.5666C135.727 46.1946 136.157 46.0081 136.676 46.0081C137.258 46.0081 137.718 46.2036 138.056 46.5933C138.392 46.9833 138.553 47.5802 138.539 48.3847H135.941C135.949 48.6959 136.032 48.938 136.192 49.1104C136.352 49.2839 136.552 49.3707 136.79 49.3707C136.953 49.3707 137.089 49.3258 137.2 49.2368C137.311 49.1457 137.395 49.0017 137.45 48.8028ZM137.509 47.7421C137.502 47.4371 137.425 47.2066 137.278 47.0484C137.131 46.8904 136.95 46.8114 136.739 46.8114C136.512 46.8114 136.326 46.8955 136.179 47.0624C136.031 47.2283 135.958 47.4553 135.961 47.7423H137.509V47.7421ZM141.862 48.8028L142.896 48.9774C142.762 49.3613 142.553 49.6535 142.266 49.8534C141.98 50.0549 141.621 50.1542 141.191 50.1542C140.51 50.1542 140.006 49.9301 139.678 49.4785C139.42 49.1178 139.29 48.6614 139.29 48.1122C139.29 47.454 139.46 46.9391 139.8 46.5666C140.139 46.1946 140.569 46.0081 141.087 46.0081C141.67 46.0081 142.13 46.2036 142.467 46.5933C142.804 46.9833 142.965 47.5802 142.951 48.3847H140.353C140.36 48.6959 140.443 48.938 140.603 49.1104C140.763 49.2839 140.963 49.3707 141.202 49.3707C141.364 49.3707 141.5 49.3258 141.611 49.2368C141.722 49.1457 141.807 49.0017 141.862 48.8028ZM141.921 47.7421C141.914 47.4371 141.837 47.2066 141.69 47.0484C141.542 46.8904 141.362 46.8114 141.151 46.8114C140.924 46.8114 140.738 46.8955 140.591 47.0624C140.443 47.2283 140.37 47.4553 140.373 47.7423H141.921V47.7421ZM147.599 50.0652H146.637V49.4824C146.477 49.7096 146.288 49.8779 146.07 49.989C145.852 50.1001 145.633 50.1548 145.411 50.1548C144.961 50.1548 144.576 49.971 144.254 49.6038C143.934 49.2366 143.773 48.7241 143.773 48.0672C143.773 47.3944 143.929 46.8832 144.241 46.5335C144.553 46.1843 144.949 46.0086 145.426 46.0086C145.864 46.0086 146.242 46.1935 146.562 46.5618V44.5894H147.599V50.0652ZM144.832 47.9958C144.832 48.4191 144.89 48.7248 145.006 48.9147C145.173 49.1877 145.407 49.3251 145.706 49.3251C145.945 49.3251 146.148 49.2217 146.315 49.0166C146.482 48.8113 146.566 48.5044 146.566 48.0964C146.566 47.6413 146.484 47.3124 146.323 47.1122C146.16 46.9121 145.952 46.8114 145.698 46.8114C145.452 46.8114 145.247 46.9108 145.081 47.1085C144.915 47.3061 144.832 47.6014 144.832 47.9958ZM148.59 48.0252C148.59 47.677 148.676 47.3392 148.845 47.0127C149.015 46.688 149.255 46.4378 149.566 46.2673C149.878 46.0949 150.225 46.0081 150.609 46.0081C151.2 46.0081 151.686 46.2036 152.066 46.5933C152.445 46.9833 152.633 47.4757 152.633 48.071C152.633 48.67 152.442 49.1674 152.061 49.5628C151.678 49.9583 151.197 50.1542 150.616 50.1542C150.256 50.1542 149.915 50.0729 149.589 49.9081C149.263 49.7438 149.015 49.5026 148.845 49.1853C148.676 48.8678 148.59 48.4816 148.59 48.0252ZM149.653 48.0813C149.653 48.4754 149.745 48.7763 149.93 48.9851C150.114 49.1943 150.342 49.2988 150.612 49.2988C150.883 49.2988 151.11 49.1943 151.293 48.9851C151.477 48.7763 151.568 48.4726 151.568 48.0736C151.568 47.686 151.476 47.3863 151.293 47.1772C151.11 46.9682 150.883 46.8635 150.612 46.8635C150.342 46.8635 150.114 46.9682 149.93 47.1772C149.745 47.3863 149.653 47.6886 149.653 48.0813ZM153.578 46.0986H154.533V46.6394C154.875 46.2187 155.283 46.0081 155.755 46.0081C156.006 46.0081 156.224 46.0605 156.407 46.165C156.592 46.2699 156.744 46.4277 156.862 46.6394C157.034 46.4277 157.22 46.2695 157.419 46.165C157.618 46.0605 157.83 46.0081 158.057 46.0081C158.344 46.0081 158.589 46.0677 158.787 46.1863C158.986 46.3039 159.135 46.4785 159.233 46.7066C159.305 46.876 159.34 47.1501 159.34 47.5291V50.0646H158.304V47.798C158.304 47.404 158.269 47.1503 158.197 47.0357C158.101 46.8863 157.954 46.8114 157.755 46.8114C157.609 46.8114 157.473 46.856 157.345 46.9465C157.217 47.0357 157.125 47.167 157.069 47.3405C157.012 47.5138 156.983 47.7866 156.983 48.1601V50.0646H155.946V47.8911C155.946 47.5046 155.927 47.2563 155.891 47.1439C155.854 47.0315 155.796 46.9487 155.72 46.8937C155.642 46.839 155.537 46.8109 155.403 46.8109C155.244 46.8109 155.1 46.8543 154.973 46.9424C154.844 47.0291 154.752 47.1556 154.697 47.3199C154.642 47.4844 154.614 47.7559 154.614 48.1371V50.0646H153.578V46.0986Z" fill="#009FE3"/>
</svg>
