<?xml version="1.0" encoding="UTF-8"?>
<!DOCTYPE svg PUBLIC "-//W3C//DTD SVG 1.1//EN" "http://www.w3.org/Graphics/SVG/1.1/DTD/svg11.dtd">
<!-- Creator: CorelDRAW 2019 (64-Bit) -->
<svg xmlns="http://www.w3.org/2000/svg" xml:space="preserve" width="481.72mm" height="11.0187mm" version="1.1" style="shape-rendering:geometricPrecision; text-rendering:geometricPrecision; image-rendering:optimizeQuality; fill-rule:evenodd; clip-rule:evenodd"
viewBox="0 0 50553.65 1156.35"
 xmlns:xlink="http://www.w3.org/1999/xlink"
 xmlns:xodm="http://www.corel.com/coreldraw/odm/2003">
 <defs>
  <style type="text/css">
   <![CDATA[
    .fil0 {fill:#A9A9AA;fill-rule:nonzero}
    .fil1 {fill:#ACACAD;fill-rule:nonzero}
    .fil80 {fill:#ADADAF;fill-rule:nonzero}
    .fil79 {fill:#AEAEB0;fill-rule:nonzero}
    .fil2 {fill:#AFAFB0;fill-rule:nonzero}
    .fil78 {fill:#AFAFB1;fill-rule:nonzero}
    .fil77 {fill:#B0B0B2;fill-rule:nonzero}
    .fil76 {fill:#B1B1B3;fill-rule:nonzero}
    .fil3 {fill:#B2B2B2;fill-rule:nonzero}
    .fil75 {fill:#B2B2B3;fill-rule:nonzero}
    .fil74 {fill:#B2B2B4;fill-rule:nonzero}
    .fil73 {fill:#B3B3B4;fill-rule:nonzero}
    .fil72 {fill:#B3B3B5;fill-rule:nonzero}
    .fil71 {fill:#B4B4B5;fill-rule:nonzero}
    .fil70 {fill:#B4B4B6;fill-rule:nonzero}
    .fil4 {fill:#B5B5B5;fill-rule:nonzero}
    .fil69 {fill:#B5B5B6;fill-rule:nonzero}
    .fil68 {fill:#B5B5B7;fill-rule:nonzero}
    .fil67 {fill:#B6B6B7;fill-rule:nonzero}
    .fil66 {fill:#B6B6B8;fill-rule:nonzero}
    .fil5 {fill:#B7B7B8;fill-rule:nonzero}
    .fil65 {fill:#B7B7B9;fill-rule:nonzero}
    .fil64 {fill:#B8B8B9;fill-rule:nonzero}
    .fil63 {fill:#B8B8BA;fill-rule:nonzero}
    .fil62 {fill:#B9B9BA;fill-rule:nonzero}
    .fil61 {fill:#B9B9BB;fill-rule:nonzero}
    .fil6 {fill:#BABABB;fill-rule:nonzero}
    .fil60 {fill:#BABABC;fill-rule:nonzero}
    .fil59 {fill:#BBBBBC;fill-rule:nonzero}
    .fil58 {fill:#BBBBBD;fill-rule:nonzero}
    .fil57 {fill:#BCBCBD;fill-rule:nonzero}
    .fil81 {fill:#BCBCBE;fill-rule:nonzero}
    .fil7 {fill:#BDBDBE;fill-rule:nonzero}
    .fil99 {fill:#BDBDBF;fill-rule:nonzero}
    .fil56 {fill:#BEBEBF;fill-rule:nonzero}
    .fil98 {fill:#BFBFBF;fill-rule:nonzero}
    .fil55 {fill:#BFBFC0;fill-rule:nonzero}
    .fil100 {fill:#BFBFC1;fill-rule:nonzero}
    .fil8 {fill:#C0C0C1;fill-rule:nonzero}
    .fil54 {fill:#C1C1C2;fill-rule:nonzero}
    .fil101 {fill:#C1C1C3;fill-rule:nonzero}
    .fil97 {fill:#C2C2C2;fill-rule:nonzero}
    .fil53 {fill:#C2C2C3;fill-rule:nonzero}
    .fil102 {fill:#C2C2C4;fill-rule:nonzero}
    .fil9 {fill:#C3C3C3;fill-rule:nonzero}
    .fil52 {fill:#C3C3C4;fill-rule:nonzero}
    .fil103 {fill:#C3C3C5;fill-rule:nonzero}
    .fil51 {fill:#C4C4C5;fill-rule:nonzero}
    .fil104 {fill:#C4C4C6;fill-rule:nonzero}
    .fil50 {fill:#C5C5C5;fill-rule:nonzero}
    .fil49 {fill:#C5C5C6;fill-rule:nonzero}
    .fil82 {fill:#C5C5C7;fill-rule:nonzero}
    .fil10 {fill:#C6C6C6;fill-rule:nonzero}
    .fil48 {fill:#C6C6C7;fill-rule:nonzero}
    .fil105 {fill:#C6C6C8;fill-rule:nonzero}
    .fil47 {fill:#C7C7C7;fill-rule:nonzero}
    .fil46 {fill:#C7C7C8;fill-rule:nonzero}
    .fil106 {fill:#C7C7C9;fill-rule:nonzero}
    .fil45 {fill:#C8C8C8;fill-rule:nonzero}
    .fil44 {fill:#C8C8C9;fill-rule:nonzero}
    .fil107 {fill:#C8C8CA;fill-rule:nonzero}
    .fil11 {fill:#C9C9C9;fill-rule:nonzero}
    .fil43 {fill:#C9C9CA;fill-rule:nonzero}
    .fil108 {fill:#C9C9CB;fill-rule:nonzero}
    .fil42 {fill:#CACACA;fill-rule:nonzero}
    .fil41 {fill:#CACACB;fill-rule:nonzero}
    .fil109 {fill:#CACACC;fill-rule:nonzero}
    .fil40 {fill:#CBCBCB;fill-rule:nonzero}
    .fil39 {fill:#CBCBCC;fill-rule:nonzero}
    .fil110 {fill:#CBCBCD;fill-rule:nonzero}
    .fil12 {fill:#CCCCCC;fill-rule:nonzero}
    .fil38 {fill:#CCCCCD;fill-rule:nonzero}
    .fil111 {fill:#CCCCCE;fill-rule:nonzero}
    .fil37 {fill:#CDCDCD;fill-rule:nonzero}
    .fil36 {fill:#CDCDCE;fill-rule:nonzero}
    .fil112 {fill:#CDCDCF;fill-rule:nonzero}
    .fil35 {fill:#CECECE;fill-rule:nonzero}
    .fil13 {fill:#CECECF;fill-rule:nonzero}
    .fil113 {fill:#CECED0;fill-rule:nonzero}
    .fil34 {fill:#CFCFCF;fill-rule:nonzero}
    .fil33 {fill:#CFCFD0;fill-rule:nonzero}
    .fil114 {fill:#CFCFD1;fill-rule:nonzero}
    .fil32 {fill:#D0D0D0;fill-rule:nonzero}
    .fil115 {fill:#D0D0D2;fill-rule:nonzero}
    .fil31 {fill:#D1D1D1;fill-rule:nonzero}
    .fil14 {fill:#D1D1D2;fill-rule:nonzero}
    .fil116 {fill:#D1D1D3;fill-rule:nonzero}
    .fil30 {fill:#D2D2D2;fill-rule:nonzero}
    .fil83 {fill:#D2D2D3;fill-rule:nonzero}
    .fil29 {fill:lightgrey;fill-rule:nonzero}
    .fil15 {fill:#D4D4D4;fill-rule:nonzero}
    .fil84 {fill:#D4D4D5;fill-rule:nonzero}
    .fil28 {fill:#D6D6D6;fill-rule:nonzero}
    .fil85 {fill:#D6D6D7;fill-rule:nonzero}
    .fil16 {fill:#D7D7D7;fill-rule:nonzero}
    .fil96 {fill:#D7D7D8;fill-rule:nonzero}
    .fil86 {fill:#D8D8D9;fill-rule:nonzero}
    .fil27 {fill:#D9D9D9;fill-rule:nonzero}
    .fil17 {fill:#DADADA;fill-rule:nonzero}
    .fil87 {fill:#DADADB;fill-rule:nonzero}
    .fil26 {fill:gainsboro;fill-rule:nonzero}
    .fil18 {fill:#DDDDDD;fill-rule:nonzero}
    .fil95 {fill:#DDDDDE;fill-rule:nonzero}
    .fil88 {fill:#DEDEDE;fill-rule:nonzero}
    .fil25 {fill:#DFDFDF;fill-rule:nonzero}
    .fil19 {fill:#E0E0E0;fill-rule:nonzero}
    .fil94 {fill:#E0E0E1;fill-rule:nonzero}
    .fil89 {fill:#E1E1E2;fill-rule:nonzero}
    .fil24 {fill:#E2E2E2;fill-rule:nonzero}
    .fil20 {fill:#E3E3E3;fill-rule:nonzero}
    .fil90 {fill:#E3E3E4;fill-rule:nonzero}
    .fil21 {fill:#E5E5E5;fill-rule:nonzero}
    .fil91 {fill:#E7E7E7;fill-rule:nonzero}
    .fil22 {fill:#E8E8E8;fill-rule:nonzero}
    .fil92 {fill:#E9E9E9;fill-rule:nonzero}
    .fil93 {fill:#EAEAEA;fill-rule:nonzero}
    .fil23 {fill:#EBEBEB;fill-rule:nonzero}
   ]]>
  </style>
    <clipPath id="id0" style="clip-rule:nonzero">
     <path d="M376.67 0l-376.67 609.82c310.2,432.98 1234.03,512.99 1751.82,516.98 1574.77,12.09 4437.02,1.98 8014.25,-10.65 6016.59,-21.24 14056.13,-49.64 21393.89,8.47 3563.73,28.22 7251.64,36.3 10448.75,29.41 3480.83,-7.49 6379.24,-32.72 7902.71,-68.95 572.43,-13.62 841.37,-215.07 1042.23,-375.99l-354.82 -634.78c-34.54,53.91 -100.19,103.92 -183.9,147.76 -4.77,2.5 204.64,376.1 199.76,378.54 -197.65,99.43 -487.57,165.56 -710.66,170.87 -1523.95,36.24 -4419.64,61.47 -7895.32,68.95 -3195.95,6.88 -6882.92,-1.2 -10446.29,-29.41 -7338.51,-58.12 -15379.01,-29.72 -21396.34,-8.47 -3576.76,12.62 -6438.63,22.73 -8013.01,10.65 -537.14,-23.18 -1054.21,-79.6 -1402.69,-302.18 -6.51,-4.15 231.72,-350.24 225.25,-354.49 -68.9,-45.37 -135.56,-96.75 -198.95,-156.53z"/>
    </clipPath>
 </defs>
 <g id="Слой_x0020_1">
  <metadata id="CorelCorpID_0Corel-Layer"/>
  <g>
   <g style="clip-path:url(#id0)">
    <polygon class="fil0" points="-0,0 296.22,0 296.22,1160.91 -0,1160.91 "/>
    <polygon id="1" class="fil1" points="197.47,0 493.69,0 493.69,1160.91 197.47,1160.91 "/>
    <polygon id="2" class="fil2" points="394.95,0 691.16,0 691.16,1160.91 394.95,1160.91 "/>
    <polygon id="3" class="fil3" points="592.43,0 888.64,0 888.64,1160.91 592.43,1160.91 "/>
    <polygon id="4" class="fil4" points="789.9,0 1086.11,0 1086.11,1160.91 789.9,1160.91 "/>
    <polygon id="5" class="fil5" points="987.38,0 1283.59,0 1283.59,1160.91 987.38,1160.91 "/>
    <polygon id="6" class="fil6" points="1184.85,0 1481.07,0 1481.07,1160.91 1184.85,1160.91 "/>
    <polygon id="7" class="fil7" points="1382.32,0 1678.54,0 1678.54,1160.91 1382.32,1160.91 "/>
    <polygon id="8" class="fil8" points="1579.8,0 1876.01,0 1876.01,1160.91 1579.8,1160.91 "/>
    <polygon id="9" class="fil9" points="1777.28,0 2073.49,0 2073.49,1160.91 1777.28,1160.91 "/>
    <polygon id="10" class="fil10" points="1974.75,0 2270.97,0 2270.97,1160.91 1974.75,1160.91 "/>
    <polygon id="11" class="fil11" points="2172.23,0 2468.44,0 2468.44,1160.91 2172.23,1160.91 "/>
    <polygon id="12" class="fil12" points="2369.7,0 2665.92,0 2665.92,1160.91 2369.7,1160.91 "/>
    <polygon id="13" class="fil13" points="2567.17,0 2863.39,0 2863.39,1160.91 2567.17,1160.91 "/>
    <polygon id="14" class="fil14" points="2764.65,0 3060.86,0 3060.86,1160.91 2764.65,1160.91 "/>
    <polygon id="15" class="fil15" points="2962.13,0 3258.34,0 3258.34,1160.91 2962.13,1160.91 "/>
    <polygon id="16" class="fil16" points="3159.6,0 3455.82,0 3455.82,1160.91 3159.6,1160.91 "/>
    <polygon id="17" class="fil17" points="3357.08,0 3653.29,0 3653.29,1160.91 3357.08,1160.91 "/>
    <polygon id="18" class="fil18" points="3554.55,0 3850.77,0 3850.77,1160.91 3554.55,1160.91 "/>
    <polygon id="19" class="fil19" points="3752.02,0 4048.24,0 4048.24,1160.91 3752.02,1160.91 "/>
    <polygon id="20" class="fil20" points="3949.51,0 4245.71,0 4245.71,1160.91 3949.51,1160.91 "/>
    <polygon id="21" class="fil21" points="4146.98,0 4443.19,0 4443.19,1160.91 4146.98,1160.91 "/>
    <polygon id="22" class="fil22" points="4344.46,0 4640.67,0 4640.67,1160.91 4344.46,1160.91 "/>
    <polygon id="23" class="fil23" points="4541.93,0 4838.14,0 4838.14,1160.91 4541.93,1160.91 "/>
    <polygon id="24" class="fil22" points="4739.4,0 5035.62,0 5035.62,1160.91 4739.4,1160.91 "/>
    <polygon id="25" class="fil21" points="4936.88,0 5233.09,0 5233.09,1160.91 4936.88,1160.91 "/>
    <polygon id="26" class="fil24" points="5134.36,0 5430.56,0 5430.56,1160.91 5134.36,1160.91 "/>
    <polygon id="27" class="fil25" points="5331.83,0 5628.05,0 5628.05,1160.91 5331.83,1160.91 "/>
    <polygon id="28" class="fil26" points="5529.31,0 5825.52,0 5825.52,1160.91 5529.31,1160.91 "/>
    <polygon id="29" class="fil27" points="5726.78,0 6022.99,0 6022.99,1160.91 5726.78,1160.91 "/>
    <polygon id="30" class="fil28" points="5924.25,0 6220.47,0 6220.47,1160.91 5924.25,1160.91 "/>
    <polygon id="31" class="fil15" points="6121.73,0 6417.94,0 6417.94,1160.91 6121.73,1160.91 "/>
    <polygon id="32" class="fil29" points="6319.21,0 6615.41,0 6615.41,1160.91 6319.21,1160.91 "/>
    <polygon id="33" class="fil29" points="6516.68,0 6812.9,0 6812.9,1160.91 6516.68,1160.91 "/>
    <polygon id="34" class="fil29" points="6714.16,0 7010.37,0 7010.37,1160.91 6714.16,1160.91 "/>
    <polygon id="35" class="fil30" points="6911.63,0 7207.84,0 7207.84,1160.91 6911.63,1160.91 "/>
    <polygon id="36" class="fil30" points="7109.1,0 7405.32,0 7405.32,1160.91 7109.1,1160.91 "/>
    <polygon id="37" class="fil31" points="7306.59,0 7602.79,0 7602.79,1160.91 7306.59,1160.91 "/>
    <polygon id="38" class="fil31" points="7504.06,0 7800.26,0 7800.26,1160.91 7504.06,1160.91 "/>
    <polygon id="39" class="fil31" points="7701.53,0 7997.75,0 7997.75,1160.91 7701.53,1160.91 "/>
    <polygon id="40" class="fil32" points="7899.01,0 8195.22,0 8195.22,1160.91 7899.01,1160.91 "/>
    <polygon id="41" class="fil32" points="8096.48,0 8392.7,0 8392.7,1160.91 8096.48,1160.91 "/>
    <polygon id="42" class="fil33" points="8293.95,0 8590.17,0 8590.17,1160.91 8293.95,1160.91 "/>
    <polygon id="43" class="fil34" points="8491.44,0 8787.64,0 8787.64,1160.91 8491.44,1160.91 "/>
    <polygon id="44" class="fil13" points="8688.91,0 8985.12,0 8985.12,1160.91 8688.91,1160.91 "/>
    <polygon id="45" class="fil35" points="8886.38,0 9182.6,0 9182.6,1160.91 8886.38,1160.91 "/>
    <polygon id="46" class="fil35" points="9083.86,0 9380.07,0 9380.07,1160.91 9083.86,1160.91 "/>
    <polygon id="47" class="fil36" points="9281.33,0 9577.55,0 9577.55,1160.91 9281.33,1160.91 "/>
    <polygon id="48" class="fil37" points="9478.8,0 9775.02,0 9775.02,1160.91 9478.8,1160.91 "/>
    <polygon id="49" class="fil38" points="9676.29,0 9972.49,0 9972.49,1160.91 9676.29,1160.91 "/>
    <polygon id="50" class="fil12" points="9873.76,0 10169.98,0 10169.98,1160.91 9873.76,1160.91 "/>
    <polygon id="51" class="fil12" points="10071.23,0 10367.45,0 10367.45,1160.91 10071.23,1160.91 "/>
    <polygon id="52" class="fil39" points="10268.71,0 10564.92,0 10564.92,1160.91 10268.71,1160.91 "/>
    <polygon id="53" class="fil40" points="10466.18,0 10762.4,0 10762.4,1160.91 10466.18,1160.91 "/>
    <polygon id="54" class="fil41" points="10663.65,0 10959.87,0 10959.87,1160.91 10663.65,1160.91 "/>
    <polygon id="55" class="fil42" points="10861.14,0 11157.34,0 11157.34,1160.91 10861.14,1160.91 "/>
    <polygon id="56" class="fil42" points="11058.61,0 11354.83,0 11354.83,1160.91 11058.61,1160.91 "/>
    <polygon id="57" class="fil43" points="11256.08,0 11552.3,0 11552.3,1160.91 11256.08,1160.91 "/>
    <polygon id="58" class="fil11" points="11453.56,0 11749.77,0 11749.77,1160.91 11453.56,1160.91 "/>
    <polygon id="59" class="fil44" points="11651.03,0 11947.25,0 11947.25,1160.91 11651.03,1160.91 "/>
    <polygon id="60" class="fil45" points="11848.52,0 12144.72,0 12144.72,1160.91 11848.52,1160.91 "/>
    <polygon id="61" class="fil46" points="12045.99,0 12342.19,0 12342.19,1160.91 12045.99,1160.91 "/>
    <polygon id="62" class="fil46" points="12243.46,0 12539.68,0 12539.68,1160.91 12243.46,1160.91 "/>
    <polygon id="63" class="fil47" points="12440.94,0 12737.15,0 12737.15,1160.91 12440.94,1160.91 "/>
    <polygon id="64" class="fil48" points="12638.41,0 12934.62,0 12934.62,1160.91 12638.41,1160.91 "/>
    <polygon id="65" class="fil48" points="12835.88,0 13132.1,0 13132.1,1160.91 12835.88,1160.91 "/>
    <polygon id="66" class="fil49" points="13033.37,0 13329.57,0 13329.57,1160.91 13033.37,1160.91 "/>
    <polygon id="67" class="fil49" points="13230.84,0 13527.05,0 13527.05,1160.91 13230.84,1160.91 "/>
    <polygon id="68" class="fil50" points="13428.31,0 13724.53,0 13724.53,1160.91 13428.31,1160.91 "/>
    <polygon id="69" class="fil51" points="13625.79,0 13922,0 13922,1160.91 13625.79,1160.91 "/>
    <polygon id="70" class="fil51" points="13823.26,0 14119.47,0 14119.47,1160.91 13823.26,1160.91 "/>
    <polygon id="71" class="fil52" points="14020.73,0 14316.95,0 14316.95,1160.91 14020.73,1160.91 "/>
    <polygon id="72" class="fil52" points="14218.22,0 14514.42,0 14514.42,1160.91 14218.22,1160.91 "/>
    <polygon id="73" class="fil53" points="14415.69,0 14711.9,0 14711.9,1160.91 14415.69,1160.91 "/>
    <polygon id="74" class="fil53" points="14613.16,0 14909.38,0 14909.38,1160.91 14613.16,1160.91 "/>
    <polygon id="75" class="fil53" points="14810.64,0 15106.85,0 15106.85,1160.91 14810.64,1160.91 "/>
    <polygon id="76" class="fil54" points="15008.11,0 15304.32,0 15304.32,1160.91 15008.11,1160.91 "/>
    <polygon id="77" class="fil54" points="15205.59,0 15501.8,0 15501.8,1160.91 15205.59,1160.91 "/>
    <polygon id="78" class="fil8" points="15403.07,0 15699.27,0 15699.27,1160.91 15403.07,1160.91 "/>
    <polygon id="79" class="fil8" points="15600.54,0 15896.76,0 15896.76,1160.91 15600.54,1160.91 "/>
    <polygon id="80" class="fil8" points="15798.01,0 16094.23,0 16094.23,1160.91 15798.01,1160.91 "/>
    <polygon id="81" class="fil55" points="15995.49,0 16291.7,0 16291.7,1160.91 15995.49,1160.91 "/>
    <polygon id="82" class="fil55" points="16192.96,0 16489.18,0 16489.18,1160.91 16192.96,1160.91 "/>
    <polygon id="83" class="fil56" points="16390.44,0 16686.65,0 16686.65,1160.91 16390.44,1160.91 "/>
    <polygon id="84" class="fil56" points="16587.92,0 16884.13,0 16884.13,1160.91 16587.92,1160.91 "/>
    <polygon id="85" class="fil56" points="16785.39,0 17081.61,0 17081.61,1160.91 16785.39,1160.91 "/>
    <polygon id="86" class="fil7" points="16982.86,0 17279.08,0 17279.08,1160.91 16982.86,1160.91 "/>
    <polygon id="87" class="fil7" points="17180.34,0 17476.55,0 17476.55,1160.91 17180.34,1160.91 "/>
    <polygon id="88" class="fil57" points="17377.81,0 17674.03,0 17674.03,1160.91 17377.81,1160.91 "/>
    <polygon id="89" class="fil57" points="17575.29,0 17871.5,0 17871.5,1160.91 17575.29,1160.91 "/>
    <polygon id="90" class="fil58" points="17772.77,0 18068.98,0 18068.98,1160.91 17772.77,1160.91 "/>
    <polygon id="91" class="fil59" points="17970.24,0 18266.46,0 18266.46,1160.91 17970.24,1160.91 "/>
    <polygon id="92" class="fil59" points="18167.71,0 18463.93,0 18463.93,1160.91 18167.71,1160.91 "/>
    <polygon id="93" class="fil60" points="18365.19,0 18661.4,0 18661.4,1160.91 18365.19,1160.91 "/>
    <polygon id="94" class="fil6" points="18562.67,0 18858.88,0 18858.88,1160.91 18562.67,1160.91 "/>
    <polygon id="95" class="fil61" points="18760.14,0 19056.35,0 19056.35,1160.91 18760.14,1160.91 "/>
    <polygon id="96" class="fil62" points="18957.62,0 19253.83,0 19253.83,1160.91 18957.62,1160.91 "/>
    <polygon id="97" class="fil62" points="19155.09,0 19451.31,0 19451.31,1160.91 19155.09,1160.91 "/>
    <polygon id="98" class="fil63" points="19352.56,0 19648.78,0 19648.78,1160.91 19352.56,1160.91 "/>
    <polygon id="99" class="fil64" points="19550.04,0 19846.25,0 19846.25,1160.91 19550.04,1160.91 "/>
    <polygon id="100" class="fil65" points="19747.52,0 20043.73,0 20043.73,1160.91 19747.52,1160.91 "/>
    <polygon id="101" class="fil5" points="19945,0 20241.21,0 20241.21,1160.91 19945,1160.91 "/>
    <polygon id="102" class="fil66" points="20142.47,0 20438.68,0 20438.68,1160.91 20142.47,1160.91 "/>
    <polygon id="103" class="fil66" points="20339.94,0 20636.16,0 20636.16,1160.91 20339.94,1160.91 "/>
    <polygon id="104" class="fil67" points="20537.42,0 20833.63,0 20833.63,1160.91 20537.42,1160.91 "/>
    <polygon id="105" class="fil68" points="20734.89,0 21031.1,0 21031.1,1160.91 20734.89,1160.91 "/>
    <polygon id="106" class="fil69" points="20932.37,0 21228.58,0 21228.58,1160.91 20932.37,1160.91 "/>
    <polygon id="107" class="fil70" points="21129.85,0 21426.06,0 21426.06,1160.91 21129.85,1160.91 "/>
    <polygon id="108" class="fil70" points="21327.32,0 21623.53,0 21623.53,1160.91 21327.32,1160.91 "/>
    <polygon id="109" class="fil71" points="21524.79,0 21821.01,0 21821.01,1160.91 21524.79,1160.91 "/>
    <polygon id="110" class="fil72" points="21722.27,0 22018.48,0 22018.48,1160.91 21722.27,1160.91 "/>
    <polygon id="111" class="fil73" points="21919.75,0 22215.95,0 22215.95,1160.91 21919.75,1160.91 "/>
    <polygon id="112" class="fil74" points="22117.22,0 22413.43,0 22413.43,1160.91 22117.22,1160.91 "/>
    <polygon id="113" class="fil74" points="22314.7,0 22610.91,0 22610.91,1160.91 22314.7,1160.91 "/>
    <polygon id="114" class="fil75" points="22512.17,0 22808.38,0 22808.38,1160.91 22512.17,1160.91 "/>
    <polygon id="115" class="fil76" points="22709.64,0 23005.86,0 23005.86,1160.91 22709.64,1160.91 "/>
    <polygon id="116" class="fil76" points="22907.12,0 23203.33,0 23203.33,1160.91 22907.12,1160.91 "/>
    <polygon id="117" class="fil77" points="23104.6,0 23400.8,0 23400.8,1160.91 23104.6,1160.91 "/>
    <polygon id="118" class="fil77" points="23302.07,0 23598.29,0 23598.29,1160.91 23302.07,1160.91 "/>
    <polygon id="119" class="fil78" points="23499.55,0 23795.76,0 23795.76,1160.91 23499.55,1160.91 "/>
    <polygon id="120" class="fil78" points="23697.02,0 23993.24,0 23993.24,1160.91 23697.02,1160.91 "/>
    <polygon id="121" class="fil78" points="23894.49,0 24190.71,0 24190.71,1160.91 23894.49,1160.91 "/>
    <polygon id="122" class="fil79" points="24091.97,0 24388.18,0 24388.18,1160.91 24091.97,1160.91 "/>
    <polygon id="123" class="fil79" points="24289.45,0 24585.66,0 24585.66,1160.91 24289.45,1160.91 "/>
    <polygon id="124" class="fil80" points="24486.92,0 24783.14,0 24783.14,1160.91 24486.92,1160.91 "/>
    <polygon id="125" class="fil80" points="24684.4,0 24980.61,0 24980.61,1160.91 24684.4,1160.91 "/>
    <polygon id="126" class="fil78" points="24881.87,0 25178.09,0 25178.09,1160.91 24881.87,1160.91 "/>
    <polygon id="127" class="fil76" points="25079.34,0 25375.56,0 25375.56,1160.91 25079.34,1160.91 "/>
    <polygon id="128" class="fil72" points="25276.83,0 25573.03,0 25573.03,1160.91 25276.83,1160.91 "/>
    <polygon id="129" class="fil69" points="25474.3,0 25770.51,0 25770.51,1160.91 25474.3,1160.91 "/>
    <polygon id="130" class="fil66" points="25671.77,0 25967.99,0 25967.99,1160.91 25671.77,1160.91 "/>
    <polygon id="131" class="fil63" points="25869.25,0 26165.46,0 26165.46,1160.91 25869.25,1160.91 "/>
    <polygon id="132" class="fil60" points="26066.72,0 26362.94,0 26362.94,1160.91 26066.72,1160.91 "/>
    <polygon id="133" class="fil81" points="26264.19,0 26560.41,0 26560.41,1160.91 26264.19,1160.91 "/>
    <polygon id="134" class="fil56" points="26461.68,0 26757.88,0 26757.88,1160.91 26461.68,1160.91 "/>
    <polygon id="135" class="fil8" points="26659.15,0 26955.36,0 26955.36,1160.91 26659.15,1160.91 "/>
    <polygon id="136" class="fil53" points="26856.62,0 27152.84,0 27152.84,1160.91 26856.62,1160.91 "/>
    <polygon id="137" class="fil51" points="27054.1,0 27350.31,0 27350.31,1160.91 27054.1,1160.91 "/>
    <polygon id="138" class="fil82" points="27251.57,0 27547.79,0 27547.79,1160.91 27251.57,1160.91 "/>
    <polygon id="139" class="fil46" points="27449.04,0 27745.26,0 27745.26,1160.91 27449.04,1160.91 "/>
    <polygon id="140" class="fil43" points="27646.53,0 27942.73,0 27942.73,1160.91 27646.53,1160.91 "/>
    <polygon id="141" class="fil39" points="27844,0 28140.22,0 28140.22,1160.91 27844,1160.91 "/>
    <polygon id="142" class="fil36" points="28041.48,0 28337.69,0 28337.69,1160.91 28041.48,1160.91 "/>
    <polygon id="143" class="fil33" points="28238.95,0 28535.16,0 28535.16,1160.91 28238.95,1160.91 "/>
    <polygon id="144" class="fil31" points="28436.42,0 28732.64,0 28732.64,1160.91 28436.42,1160.91 "/>
    <polygon id="145" class="fil83" points="28633.9,0 28930.11,0 28930.11,1160.91 28633.9,1160.91 "/>
    <polygon id="146" class="fil84" points="28831.38,0 29127.58,0 29127.58,1160.91 28831.38,1160.91 "/>
    <polygon id="147" class="fil85" points="29028.85,0 29325.07,0 29325.07,1160.91 29028.85,1160.91 "/>
    <polygon id="148" class="fil86" points="29226.33,0 29522.54,0 29522.54,1160.91 29226.33,1160.91 "/>
    <polygon id="149" class="fil87" points="29423.8,0 29720.01,0 29720.01,1160.91 29423.8,1160.91 "/>
    <polygon id="150" class="fil26" points="29621.27,0 29917.49,0 29917.49,1160.91 29621.27,1160.91 "/>
    <polygon id="151" class="fil88" points="29818.76,0 30114.96,0 30114.96,1160.91 29818.76,1160.91 "/>
    <polygon id="152" class="fil19" points="30016.23,0 30312.43,0 30312.43,1160.91 30016.23,1160.91 "/>
    <polygon id="153" class="fil89" points="30213.7,0 30509.92,0 30509.92,1160.91 30213.7,1160.91 "/>
    <polygon id="154" class="fil90" points="30411.18,0 30707.39,0 30707.39,1160.91 30411.18,1160.91 "/>
    <polygon id="155" class="fil21" points="30608.65,0 30904.86,0 30904.86,1160.91 30608.65,1160.91 "/>
    <polygon id="156" class="fil91" points="30806.12,0 31102.34,0 31102.34,1160.91 30806.12,1160.91 "/>
    <polygon id="157" class="fil92" points="31003.61,0 31299.81,0 31299.81,1160.91 31003.61,1160.91 "/>
    <polygon id="158" class="fil23" points="31201.08,0 31497.3,0 31497.3,1160.91 31201.08,1160.91 "/>
    <polygon id="159" class="fil93" points="31398.55,0 31694.77,0 31694.77,1160.91 31398.55,1160.91 "/>
    <polygon id="160" class="fil22" points="31596.03,0 31892.24,0 31892.24,1160.91 31596.03,1160.91 "/>
    <polygon id="161" class="fil91" points="31793.5,0 32089.72,0 32089.72,1160.91 31793.5,1160.91 "/>
    <polygon id="162" class="fil21" points="31990.97,0 32287.19,0 32287.19,1160.91 31990.97,1160.91 "/>
    <polygon id="163" class="fil90" points="32188.46,0 32484.66,0 32484.66,1160.91 32188.46,1160.91 "/>
    <polygon id="164" class="fil24" points="32385.93,0 32682.15,0 32682.15,1160.91 32385.93,1160.91 "/>
    <polygon id="165" class="fil94" points="32583.4,0 32879.62,0 32879.62,1160.91 32583.4,1160.91 "/>
    <polygon id="166" class="fil25" points="32780.88,0 33077.09,0 33077.09,1160.91 32780.88,1160.91 "/>
    <polygon id="167" class="fil95" points="32978.35,0 33274.57,0 33274.57,1160.91 32978.35,1160.91 "/>
    <polygon id="168" class="fil26" points="33175.83,0 33472.04,0 33472.04,1160.91 33175.83,1160.91 "/>
    <polygon id="169" class="fil87" points="33373.31,0 33669.51,0 33669.51,1160.91 33373.31,1160.91 "/>
    <polygon id="170" class="fil27" points="33570.78,0 33867,0 33867,1160.91 33570.78,1160.91 "/>
    <polygon id="171" class="fil96" points="33768.25,0 34064.47,0 34064.47,1160.91 33768.25,1160.91 "/>
    <polygon id="172" class="fil28" points="33965.73,0 34261.94,0 34261.94,1160.91 33965.73,1160.91 "/>
    <polygon id="173" class="fil84" points="34163.2,0 34459.42,0 34459.42,1160.91 34163.2,1160.91 "/>
    <polygon id="174" class="fil29" points="34360.68,0 34656.89,0 34656.89,1160.91 34360.68,1160.91 "/>
    <polygon id="175" class="fil14" points="34558.16,0 34854.37,0 34854.37,1160.91 34558.16,1160.91 "/>
    <polygon id="176" class="fil33" points="34755.63,0 35051.85,0 35051.85,1160.91 34755.63,1160.91 "/>
    <polygon id="177" class="fil35" points="34953.1,0 35249.32,0 35249.32,1160.91 34953.1,1160.91 "/>
    <polygon id="178" class="fil38" points="35150.58,0 35446.79,0 35446.79,1160.91 35150.58,1160.91 "/>
    <polygon id="179" class="fil40" points="35348.05,0 35644.27,0 35644.27,1160.91 35348.05,1160.91 "/>
    <polygon id="180" class="fil43" points="35545.54,0 35841.74,0 35841.74,1160.91 35545.54,1160.91 "/>
    <polygon id="181" class="fil45" points="35743.01,0 36039.22,0 36039.22,1160.91 35743.01,1160.91 "/>
    <polygon id="182" class="fil48" points="35940.48,0 36236.7,0 36236.7,1160.91 35940.48,1160.91 "/>
    <polygon id="183" class="fil50" points="36137.96,0 36434.17,0 36434.17,1160.91 36137.96,1160.91 "/>
    <polygon id="184" class="fil52" points="36335.43,0 36631.64,0 36631.64,1160.91 36335.43,1160.91 "/>
    <polygon id="185" class="fil97" points="36532.91,0 36829.12,0 36829.12,1160.91 36532.91,1160.91 "/>
    <polygon id="186" class="fil8" points="36730.39,0 37026.59,0 37026.59,1160.91 36730.39,1160.91 "/>
    <polygon id="187" class="fil98" points="36927.86,0 37224.07,0 37224.07,1160.91 36927.86,1160.91 "/>
    <polygon id="188" class="fil7" points="37125.33,0 37421.55,0 37421.55,1160.91 37125.33,1160.91 "/>
    <polygon id="189" class="fil59" points="37322.81,0 37619.02,0 37619.02,1160.91 37322.81,1160.91 "/>
    <polygon id="190" class="fil6" points="37520.28,0 37816.49,0 37816.49,1160.91 37520.28,1160.91 "/>
    <polygon id="191" class="fil64" points="37717.76,0 38013.97,0 38013.97,1160.91 37717.76,1160.91 "/>
    <polygon id="192" class="fil64" points="37915.24,0 38211.45,0 38211.45,1160.91 37915.24,1160.91 "/>
    <polygon id="193" class="fil62" points="38112.71,0 38408.93,0 38408.93,1160.91 38112.71,1160.91 "/>
    <polygon id="194" class="fil62" points="38310.18,0 38606.4,0 38606.4,1160.91 38310.18,1160.91 "/>
    <polygon id="195" class="fil61" points="38507.66,0 38803.87,0 38803.87,1160.91 38507.66,1160.91 "/>
    <polygon id="196" class="fil6" points="38705.13,0 39001.35,0 39001.35,1160.91 38705.13,1160.91 "/>
    <polygon id="197" class="fil6" points="38902.61,0 39198.82,0 39198.82,1160.91 38902.61,1160.91 "/>
    <polygon id="198" class="fil59" points="39100.09,0 39396.3,0 39396.3,1160.91 39100.09,1160.91 "/>
    <polygon id="199" class="fil59" points="39297.56,0 39593.78,0 39593.78,1160.91 39297.56,1160.91 "/>
    <polygon id="200" class="fil58" points="39495.03,0 39791.25,0 39791.25,1160.91 39495.03,1160.91 "/>
    <polygon id="201" class="fil57" points="39692.51,0 39988.72,0 39988.72,1160.91 39692.51,1160.91 "/>
    <polygon id="202" class="fil57" points="39889.99,0 40186.2,0 40186.2,1160.91 39889.99,1160.91 "/>
    <polygon id="203" class="fil7" points="40087.46,0 40383.67,0 40383.67,1160.91 40087.46,1160.91 "/>
    <polygon id="204" class="fil7" points="40284.94,0 40581.15,0 40581.15,1160.91 40284.94,1160.91 "/>
    <polygon id="205" class="fil99" points="40482.41,0 40778.63,0 40778.63,1160.91 40482.41,1160.91 "/>
    <polygon id="206" class="fil56" points="40679.88,0 40976.1,0 40976.1,1160.91 40679.88,1160.91 "/>
    <polygon id="207" class="fil56" points="40877.36,0 41173.57,0 41173.57,1160.91 40877.36,1160.91 "/>
    <polygon id="208" class="fil55" points="41074.84,0 41371.05,0 41371.05,1160.91 41074.84,1160.91 "/>
    <polygon id="209" class="fil55" points="41272.31,0 41568.53,0 41568.53,1160.91 41272.31,1160.91 "/>
    <polygon id="210" class="fil100" points="41469.79,0 41766,0 41766,1160.91 41469.79,1160.91 "/>
    <polygon id="211" class="fil8" points="41667.26,0 41963.48,0 41963.48,1160.91 41667.26,1160.91 "/>
    <polygon id="212" class="fil8" points="41864.73,0 42160.95,0 42160.95,1160.91 41864.73,1160.91 "/>
    <polygon id="213" class="fil54" points="42062.21,0 42358.42,0 42358.42,1160.91 42062.21,1160.91 "/>
    <polygon id="214" class="fil54" points="42259.69,0 42555.9,0 42555.9,1160.91 42259.69,1160.91 "/>
    <polygon id="215" class="fil101" points="42457.17,0 42753.38,0 42753.38,1160.91 42457.17,1160.91 "/>
    <polygon id="216" class="fil53" points="42654.64,0 42950.85,0 42950.85,1160.91 42654.64,1160.91 "/>
    <polygon id="217" class="fil102" points="42852.11,0 43148.33,0 43148.33,1160.91 42852.11,1160.91 "/>
    <polygon id="218" class="fil102" points="43049.59,0 43345.8,0 43345.8,1160.91 43049.59,1160.91 "/>
    <polygon id="219" class="fil52" points="43247.06,0 43543.27,0 43543.27,1160.91 43247.06,1160.91 "/>
    <polygon id="220" class="fil103" points="43444.54,0 43740.75,0 43740.75,1160.91 43444.54,1160.91 "/>
    <polygon id="221" class="fil51" points="43642.02,0 43938.23,0 43938.23,1160.91 43642.02,1160.91 "/>
    <polygon id="222" class="fil104" points="43839.49,0 44135.7,0 44135.7,1160.91 43839.49,1160.91 "/>
    <polygon id="223" class="fil104" points="44036.96,0 44333.18,0 44333.18,1160.91 44036.96,1160.91 "/>
    <polygon id="224" class="fil49" points="44234.44,0 44530.65,0 44530.65,1160.91 44234.44,1160.91 "/>
    <polygon id="225" class="fil82" points="44431.92,0 44728.12,0 44728.12,1160.91 44431.92,1160.91 "/>
    <polygon id="226" class="fil48" points="44629.39,0 44925.6,0 44925.6,1160.91 44629.39,1160.91 "/>
    <polygon id="227" class="fil105" points="44826.87,0 45123.08,0 45123.08,1160.91 44826.87,1160.91 "/>
    <polygon id="228" class="fil105" points="45024.34,0 45320.55,0 45320.55,1160.91 45024.34,1160.91 "/>
    <polygon id="229" class="fil46" points="45221.81,0 45518.03,0 45518.03,1160.91 45221.81,1160.91 "/>
    <polygon id="230" class="fil106" points="45419.29,0 45715.5,0 45715.5,1160.91 45419.29,1160.91 "/>
    <polygon id="231" class="fil44" points="45616.77,0 45912.97,0 45912.97,1160.91 45616.77,1160.91 "/>
    <polygon id="232" class="fil107" points="45814.24,0 46110.46,0 46110.46,1160.91 45814.24,1160.91 "/>
    <polygon id="233" class="fil107" points="46011.72,0 46307.93,0 46307.93,1160.91 46011.72,1160.91 "/>
    <polygon id="234" class="fil43" points="46209.19,0 46505.41,0 46505.41,1160.91 46209.19,1160.91 "/>
    <polygon id="235" class="fil108" points="46406.66,0 46702.88,0 46702.88,1160.91 46406.66,1160.91 "/>
    <polygon id="236" class="fil41" points="46604.14,0 46900.35,0 46900.35,1160.91 46604.14,1160.91 "/>
    <polygon id="237" class="fil109" points="46801.62,0 47097.83,0 47097.83,1160.91 46801.62,1160.91 "/>
    <polygon id="238" class="fil109" points="46999.09,0 47295.31,0 47295.31,1160.91 46999.09,1160.91 "/>
    <polygon id="239" class="fil39" points="47196.57,0 47492.78,0 47492.78,1160.91 47196.57,1160.91 "/>
    <polygon id="240" class="fil110" points="47394.04,0 47690.26,0 47690.26,1160.91 47394.04,1160.91 "/>
    <polygon id="241" class="fil38" points="47591.51,0 47887.73,0 47887.73,1160.91 47591.51,1160.91 "/>
    <polygon id="242" class="fil111" points="47789,0 48085.2,0 48085.2,1160.91 47789,1160.91 "/>
    <polygon id="243" class="fil111" points="47986.47,0 48282.68,0 48282.68,1160.91 47986.47,1160.91 "/>
    <polygon id="244" class="fil112" points="48183.94,0 48480.16,0 48480.16,1160.91 48183.94,1160.91 "/>
    <polygon id="245" class="fil112" points="48381.42,0 48677.63,0 48677.63,1160.91 48381.42,1160.91 "/>
    <polygon id="246" class="fil112" points="48578.89,0 48875.11,0 48875.11,1160.91 48578.89,1160.91 "/>
    <polygon id="247" class="fil113" points="48776.36,0 49072.58,0 49072.58,1160.91 48776.36,1160.91 "/>
    <polygon id="248" class="fil113" points="48973.85,0 49270.05,0 49270.05,1160.91 48973.85,1160.91 "/>
    <polygon id="249" class="fil114" points="49171.32,0 49467.54,0 49467.54,1160.91 49171.32,1160.91 "/>
    <polygon id="250" class="fil114" points="49368.79,0 49665.01,0 49665.01,1160.91 49368.79,1160.91 "/>
    <polygon id="251" class="fil114" points="49566.27,0 49862.48,0 49862.48,1160.91 49566.27,1160.91 "/>
    <polygon id="252" class="fil115" points="49763.74,0 50059.96,0 50059.96,1160.91 49763.74,1160.91 "/>
    <polygon id="253" class="fil115" points="49961.21,0 50257.43,0 50257.43,1160.91 49961.21,1160.91 "/>
    <polygon id="254" class="fil116" points="50158.7,0 50454.9,0 50454.9,1160.91 50158.7,1160.91 "/>
    <polygon id="255" class="fil116" points="50356.17,0 50652.39,0 50652.39,1160.91 50356.17,1160.91 "/>
    <polygon id="256" class="fil0" points="50553.65,0 50553.65,0 50553.65,1160.91 50553.65,1160.91 "/>
   </g>
  </g>
 </g>
</svg>
